<svg width="480" height="480" viewBox="0 0 480 480" fill="none" xmlns="http://www.w3.org/2000/svg"><style>svg{fill:#222222;}@media(prefers-color-scheme:dark){svg{fill:#FFFFFF}}</style>
<path fill-rule="evenodd" clip-rule="evenodd" d="M480 240C480 372.548 372.548 480 240 480C107.452 480 0 372.548 0 240C0 107.452 107.452 0 240 0C372.548 0 480 107.452 480 240ZM66.5331 373.151L150.4 308.8L198.4 365.333L264.533 412.8L251.733 394.133L334.933 317.867L400.072 388.972C420.8 366.709 436.94 340.117 446.985 310.7C429.614 295.768 399.768 274.403 364.267 260.8L341.333 236.8L405.866 173.867L405.866 173.867L451.733 224L405.866 178.134L405.866 214.934C409.066 220.089 413.013 231.68 403.2 236.8C390.933 243.2 395.2 258.667 408 260.8C415.977 262.13 434.611 286.415 448.426 306.329C455.077 285.409 458.667 263.124 458.667 240C458.667 119.234 360.766 21.3334 240 21.3334C120.619 21.3334 23.5827 117 21.3719 235.853L83.7334 182.4L83.7336 182.4L140.267 235.2L83.3985 184.709C81.6746 197.108 79.7296 219.196 83.7334 224C89.0668 230.4 86.9334 241.067 83.7334 243.2C80.5334 245.333 62.9334 272 81.0668 275.733C95.5734 278.72 96.0001 286.933 94.4001 290.667L237.867 133.867L339.733 236.267L237.867 137.067L237.396 137.392C235.346 153.629 233.115 182.909 237.867 193.6C242.987 205.12 235.733 214.4 231.467 217.6C208 238.08 215.645 266.667 222.4 278.4L260.8 340.8L159.467 254.4L66.35 372.912L66.5331 373.151Z" />
</svg>
